<svg xmlns="http://www.w3.org/2000/svg" xmlns:xlink="http://www.w3.org/1999/xlink" viewBox="0 0 329.66 269.28"><defs><style>.cls-1{fill:#2e3192;}.cls-2{fill:#00a99d;}.cls-3{fill:#0071bc;}.cls-4{fill:#002626;}.cls-5{fill:#7ac943;}.cls-6{fill:url(#linear-gradient);}.cls-7{fill:url(#linear-gradient-2);}.cls-8{fill:url(#linear-gradient-3);}.cls-9{fill:url(#linear-gradient-4);}.cls-10{fill:url(#linear-gradient-5);}.cls-11{fill:#009245;}.cls-12{fill:#006837;}.cls-13{fill:url(#BGB);}.cls-14{fill:#22b573;}.cls-15{fill:#e6e6e6;}.cls-16{fill:#228073;}.cls-17{fill:#7fabda;}.cls-18{fill:url(#BGB-2);}</style><linearGradient id="linear-gradient" x1="132.91" y1="237.79" x2="146.76" y2="245.78" gradientUnits="userSpaceOnUse"><stop offset="0" stop-color="#8cc63f"/><stop offset="0.14" stop-color="#81bf3e"/><stop offset="0.38" stop-color="#64ab3d"/><stop offset="0.69" stop-color="#358c3a"/><stop offset="1" stop-color="#006837"/></linearGradient><linearGradient id="linear-gradient-2" x1="144.18" y1="232.79" x2="161.49" y2="242.78" xlink:href="#linear-gradient"/><linearGradient id="linear-gradient-3" x1="155.23" y1="227.16" x2="176.44" y2="239.41" xlink:href="#linear-gradient"/><linearGradient id="linear-gradient-4" x1="166.71" y1="222.79" x2="190.96" y2="236.78" xlink:href="#linear-gradient"/><linearGradient id="linear-gradient-5" x1="177.98" y1="217.79" x2="205.69" y2="233.78" xlink:href="#linear-gradient"/><linearGradient id="BGB" x1="451.96" y1="442.12" x2="494.92" y2="389.55" gradientUnits="userSpaceOnUse"><stop offset="0" stop-color="#0e6349"/><stop offset="0.5" stop-color="#0e4749"/><stop offset="1" stop-color="#002626"/></linearGradient><linearGradient id="BGB-2" x1="325.44" y1="444.92" x2="273.94" y2="400.68" xlink:href="#BGB"/></defs><title>newWarun</title><g id="Headphones"><rect class="cls-1" x="231" y="263" width="10" height="45" rx="5" transform="matrix(0.99, 0.11, -0.11, 0.99, -186.37, -270.41)"/><rect class="cls-1" x="527" y="263" width="10" height="45" rx="5" transform="translate(-245.48 -190.54) rotate(-5.85)"/><path class="cls-2" d="M231.19,358.18l-6.08-.79c-3.65-.48-6.31-4.4-5.91-8.71l5.24-55.89c.4-4.31,3.72-7.45,7.37-7l6.08.79c3.65.48,6.31,4.4,5.91,8.71l-5.24,55.89C238.16,355.52,234.84,358.66,231.19,358.18Z" transform="translate(-219.16 -246.22)"/><rect class="cls-2" x="527.01" y="283.21" width="18.96" height="72" rx="7.89" transform="translate(-248.89 -189.91) rotate(-5.85)"/><rect class="cls-3" x="240.96" y="267.77" width="24" height="106" rx="12" transform="translate(-182.4 -272.06) rotate(6.31)"/><path class="cls-1" d="M258.78,268.09a11.56,11.56,0,0,0-3.33.11,12,12,0,0,1,9.94,13.14l-9,81.5a12,12,0,0,1-9.92,10.5l.68.11h0a12,12,0,0,0,13.24-10.61l9-81.5A12,12,0,0,0,258.78,268.09Z" transform="translate(-219.16 -246.22)"/><rect class="cls-3" x="503.96" y="267.77" width="24" height="106" rx="12" transform="translate(842.74 341.1) rotate(174.15)"/><path class="cls-1" d="M521.36,373.49a12,12,0,0,0,3.23-.8,12,12,0,0,1-12.48-10.75l-8.36-81.58A12,12,0,0,1,511.24,268l-.68,0h0a12,12,0,0,0-10.72,13.16l8.36,81.58A12,12,0,0,0,521.36,373.49Z" transform="translate(-219.16 -246.22)"/><rect class="cls-2" x="244.17" y="327.02" width="8" height="37.93" rx="4" transform="translate(-179.66 -271.38) rotate(6.31)"/><rect class="cls-2" x="27.84" y="64.78" width="8" height="8" rx="4"/><rect class="cls-2" x="516.73" y="326.99" width="8" height="37.93" rx="4" transform="translate(-246.26 -201.48) rotate(-4.79)"/><rect class="cls-2" x="513.54" y="311" width="8" height="8" rx="4" transform="translate(-270.13 -140.67) rotate(-11.1)"/></g><g id="Head"><g id="mirror_x" data-name="mirror x"><path class="cls-4" d="M280.5,246.5c9,12,28,21,28,21,70.07,40.72,74.69,109.21,75,116.38,0,0,0,.08,0,.12.47,3.09.78,6.14.95,9.15l.05.35v122h-47S317,486,297.28,472.37a58.34,58.34,0,0,1-7.47-5.59h0c-18.72-16.5-31.31-47.39-31.31-82.77v-.5h0C257,345,275.66,240.05,280.5,246.5Z" transform="translate(-219.16 -246.22)"/><path class="cls-5" d="M384,402.5s0-.08,0-.12c-.29-7.17-4.91-75.66-75-116.38,0,0-19-9-28-21-4.38-5.84-20.08,79.58-21.91,124.39,0-1.62-.09-3.25-.09-4.89V384h0c-1.5-38.5,17.16-143.45,22-137,9,12,28,21,28,21,70.07,40.72,74.69,109.21,75,116.38,0,0,0,.08,0,.12.47,3.09.78,6.14.95,9.15l.05.35v18l-.05-.35C384.78,408.64,384.47,405.59,384,402.5Z" transform="translate(-219.16 -246.22)"/><path class="cls-4" d="M488.5,246.5c-9,12-28,21-28,21-70.07,40.72-74.69,109.21-75,116.38,0,0,0,.08,0,.12-.47,3.09-.78,6.14-.95,9.15l-.05.35v122h47S452,486,471.72,472.37a58.34,58.34,0,0,0,7.47-5.59h0c18.72-16.5,31.31-47.39,31.31-82.77v-.5h0C512,345,493.34,240.05,488.5,246.5Z" transform="translate(-219.16 -246.22)"/><path class="cls-5" d="M385,402.5s0-.08,0-.12c.29-7.17,4.91-75.66,75-116.38,0,0,19-9,28-21,4.38-5.84,20.08,79.58,21.91,124.39,0-1.62.09-3.25.09-4.89V384h0c1.5-38.5-17.16-143.45-22-137-9,12-28,21-28,21-70.07,40.72-74.69,109.21-75,116.38,0,0,0,.08,0,.12-.47,3.09-.78,6.14-.95,9.15L384,394v18l.05-.35C384.22,408.64,384.53,405.59,385,402.5Z" transform="translate(-219.16 -246.22)"/></g></g><g id="Mouth"><rect class="cls-6" x="135.84" y="229.78" width="8" height="24" rx="4"/><rect class="cls-7" x="148.84" y="221.78" width="8" height="32" rx="4"/><rect class="cls-8" x="161.84" y="212.78" width="8" height="41" rx="4"/><rect class="cls-9" x="174.84" y="205.78" width="8" height="48" rx="4"/><rect class="cls-10" x="187.84" y="197.78" width="8" height="56" rx="4"/></g><g id="Eyes"><g id="Right"><path class="cls-11" d="M500,353s24,93-49,130c0,0-51-39,0-90C495,349,500,353,500,353Z" transform="translate(-219.16 -246.22)"/><path class="cls-12" d="M449.89,395.07c44.25-44.25,49.29-40.24,49.29-40.24s8.62,33.39-.11,68.21c13.48-38.15,3.13-78.27,3.13-78.27s-5-4-49.29,40.24c-13.33,13.32-19.72,25.83-21.9,37.06C434.45,413.59,440.42,404.54,449.89,395.07Z" transform="translate(-219.16 -246.22)"/><path class="cls-13" d="M496.6,359.5s21.6,83.69-44.09,117c0,0-45.9-35.1,0-81C492.09,355.92,496.6,359.5,496.6,359.5Z" transform="translate(-219.16 -246.22)"/><path class="cls-14" d="M447.51,408.5c39.58-39.58,44.09-36,44.09-36s8.5,33-1.4,65.74c17.31-36.42,6.4-78.74,6.4-78.74s-4.51-3.58-44.09,36c-11.3,11.3-17,21.94-19.26,31.57A81,81,0,0,1,447.51,408.5Z" transform="translate(-219.16 -246.22)"/><path class="cls-15" d="M462,455.2a4.41,4.41,0,0,1-3.76-6.31,8,8,0,0,0-7.21-11.29H431.5v1.6h2.13L444.15,455a11.29,11.29,0,0,0,9.39,5h18v-4.8H462Z" transform="translate(-219.16 -246.22)"/><path class="cls-15" d="M453.54,412a11.29,11.29,0,0,0-9.39,5L433.63,432.8H431.5v1.6h10.82a7,7,0,0,0,6.94-8.26l-.57-3.28c0-.19,0-.38,0-.57l-4.39,6.6a1.6,1.6,0,0,1-2.67-1.78l5-7.42a6.49,6.49,0,0,1,5.4-2.89H471.5V412Z" transform="translate(-219.16 -246.22)"/><path class="cls-16" d="M453.48,416.8h2a1.6,1.6,0,1,1,0,3.2h-3.56a3.3,3.3,0,0,0-2.74,1.47l-.55.82c0,.19,0,.38,0,.57l.57,3.28a7,7,0,0,1-6.94,8.26H431.5v3.2h19.56a8,8,0,0,1,7.21,11.29A4.41,4.41,0,0,0,462,455.2h9.47V416.8h-18Z" transform="translate(-219.16 -246.22)"/><path class="cls-17" d="M453.46,416.8h-1.52a6.49,6.49,0,0,0-5.4,2.89l-5,7.42a1.6,1.6,0,0,0,2.67,1.78l4.39-6.6A5.07,5.07,0,0,1,453.46,416.8Z" transform="translate(-219.16 -246.22)"/><path class="cls-17" d="M451.94,420h3.56a1.6,1.6,0,1,0,0-3.2h-2a5.07,5.07,0,0,0-4.81,5.49l.55-.82A3.3,3.3,0,0,1,451.94,420Z" transform="translate(-219.16 -246.22)"/></g><g id="Left"><path class="cls-11" d="M268.33,353s-24,93,49,130c0,0,51-39,0-90C273.35,349,268.33,353,268.33,353Z" transform="translate(-219.16 -246.22)"/><path class="cls-12" d="M318.45,395.07c-44.25-44.25-49.3-40.24-49.3-40.24s-8.61,33.39.11,68.21c-13.48-38.15-3.13-78.27-3.13-78.27s5.05-4,49.3,40.24c13.32,13.32,19.72,25.83,21.9,37.06C333.88,413.59,327.91,404.54,318.45,395.07Z" transform="translate(-219.16 -246.22)"/><path class="cls-18" d="M271.73,359.5s-21.6,83.69,44.1,117c0,0,45.89-35.1,0-81C276.25,355.92,271.73,359.5,271.73,359.5Z" transform="translate(-219.16 -246.22)"/><path class="cls-14" d="M320.83,408.5c-39.58-39.58-44.1-36-44.1-36s-8.5,33,1.4,65.74c-17.31-36.42-6.4-78.74-6.4-78.74s4.52-3.58,44.1,36c11.3,11.3,17,21.94,19.25,31.57A80.92,80.92,0,0,0,320.83,408.5Z" transform="translate(-219.16 -246.22)"/><path class="cls-15" d="M330.65,438.6l-4,5.51h0a1.57,1.57,0,0,1,.29.89,1.63,1.63,0,0,1-.27.89l-4.94,7.42a6.53,6.53,0,0,1-5.41,2.89H312.5A8.75,8.75,0,0,1,304,445.33l6-24.08a4.55,4.55,0,0,1,4.42-3.45,6.49,6.49,0,0,1,5.4,2.89l10.79,14.71h5.05a.8.8,0,0,0,.8-.8h0a.8.8,0,0,0-.8-.8h-1.33L323.85,418a11.29,11.29,0,0,0-9.39-5h-18v48h18a11.29,11.29,0,0,0,9.39-5l10.52-15.77h1.33a.8.8,0,0,0,.8-.8h0a.8.8,0,0,0-.8-.8Z" transform="translate(-219.16 -246.22)"/><path class="cls-16" d="M319.86,420.69a6.49,6.49,0,0,0-5.4-2.89,4.55,4.55,0,0,0-4.42,3.45l-6,24.08a8.75,8.75,0,0,0,8.48,10.87h.22a1.6,1.6,0,0,1-1.58-1.83,1.7,1.7,0,0,1,1.71-1.37h3.41a3.35,3.35,0,0,0,2.78-1.49l4.93-7.4a1.56,1.56,0,0,1,2.64,0l4-5.49,0,0h5.77a0,0,0,0,0,.05-.05v-3.1a0,0,0,0,0-.05-.05h-5.77l0,0Z" transform="translate(-219.16 -246.22)"/><path class="cls-17" d="M314.46,456.2h1.79a6.54,6.54,0,0,0,5.45-2.91l4.93-7.4a1.63,1.63,0,0,0,.27-.89,1.57,1.57,0,0,0-.29-.89l-6.75,9.2A6.49,6.49,0,0,1,314.46,456.2Z" transform="translate(-219.16 -246.22)"/><path class="cls-17" d="M326.19,443.67a1.6,1.6,0,0,0-2.22.44l-4.93,7.4a3.35,3.35,0,0,1-2.78,1.49h-3.41a1.7,1.7,0,0,0-1.71,1.37,1.6,1.6,0,0,0,1.58,1.83h1.74a6.49,6.49,0,0,0,5.4-2.89l6.75-9.2A1.6,1.6,0,0,0,326.19,443.67Z" transform="translate(-219.16 -246.22)"/></g></g></svg>