<svg xmlns="http://www.w3.org/2000/svg" xmlns:xlink="http://www.w3.org/1999/xlink" viewBox="0 0 164.83 269.28"><defs><linearGradient id="linear-gradient" x1="1.88" y1="222.79" x2="26.12" y2="236.78" gradientUnits="userSpaceOnUse"><stop offset="0" stop-color="#8cc63f"/><stop offset="0.14" stop-color="#81bf3e"/><stop offset="0.38" stop-color="#64ab3d"/><stop offset="0.69" stop-color="#358c3a"/><stop offset="1" stop-color="#006837"/></linearGradient><linearGradient id="linear-gradient-2" x1="13.15" y1="217.79" x2="40.85" y2="233.78" xlink:href="#linear-gradient"/><linearGradient id="linear-gradient-3" x1="376.47" y1="473.91" x2="396.65" y2="485.56" xlink:href="#linear-gradient"/><linearGradient id="BGB" x1="451.96" y1="442.12" x2="494.92" y2="389.55" gradientUnits="userSpaceOnUse"><stop offset="0" stop-color="#0e6349"/><stop offset="0.5" stop-color="#0e4749"/><stop offset="1" stop-color="#002626"/></linearGradient></defs><title>newWarun</title><g id="Headphones"><rect x="527" y="263" width="10" height="45" rx="5" transform="translate(-410.31 -190.54) rotate(-5.85)" style="fill:#2e3192"/><rect x="527.01" y="283.21" width="18.96" height="72" rx="7.89" transform="translate(-413.72 -189.91) rotate(-5.85)" style="fill:#00a99d"/><rect x="503.96" y="267.77" width="24" height="106" rx="12" transform="translate(677.91 341.1) rotate(174.15)" style="fill:#0071bc"/><path d="M521.36,373.49a12,12,0,0,0,3.23-.8,12,12,0,0,1-12.48-10.75l-8.36-81.58A12,12,0,0,1,511.24,268l-.68,0h0a12,12,0,0,0-10.72,13.16l8.36,81.58A12,12,0,0,0,521.36,373.49Z" transform="translate(-384 -246.22)" style="fill:#2e3192"/><rect x="516.73" y="326.99" width="8" height="37.93" rx="4" transform="translate(-411.1 -201.48) rotate(-4.79)" style="fill:#00a99d"/><rect x="513.54" y="311" width="8" height="8" rx="4" transform="translate(-434.97 -140.67) rotate(-11.1)" style="fill:#00a99d"/></g><g id="Head"><g id="mirror_x" data-name="mirror x"><path d="M488.5,246.5c-9,12-28,21-28,21-70.07,40.72-74.69,109.21-75,116.38,0,0,0,.08,0,.12-.47,3.09-.78,6.14-.95,9.15l-.05.35v122h47S452,486,471.72,472.37a58.34,58.34,0,0,0,7.47-5.59h0c18.72-16.5,31.31-47.39,31.31-82.77v-.5h0C512,345,493.34,240.05,488.5,246.5Z" transform="translate(-384 -246.22)" style="fill:#002626"/><path d="M385,402.5s0-.08,0-.12c.29-7.17,4.91-75.66,75-116.38,0,0,19-9,28-21,4.38-5.84,20.08,79.58,21.91,124.39,0-1.62.09-3.25.09-4.89V384h0c1.5-38.5-17.16-143.45-22-137-9,12-28,21-28,21-70.07,40.72-74.69,109.21-75,116.38,0,0,0,.08,0,.12-.47,3.09-.78,6.14-.95,9.15L384,394v18l.05-.35C384.22,408.64,384.53,405.59,385,402.5Z" transform="translate(-384 -246.22)" style="fill:#7ac943"/></g></g><g id="Mouth"><rect x="10" y="205.78" width="8" height="48" rx="4" style="fill:url(#linear-gradient)"/><rect x="23" y="197.78" width="8" height="56" rx="4" style="fill:url(#linear-gradient-2)"/><path d="M386,459a4.09,4.09,0,0,0-1,.14v40.72a4.09,4.09,0,0,0,1,.14,4,4,0,0,0,4-4V463A4,4,0,0,0,386,459Z" transform="translate(-384 -246.22)" style="fill:url(#linear-gradient-3)"/></g><g id="Eyes"><g id="Right"><path d="M500,353s24,93-49,130c0,0-51-39,0-90C495,349,500,353,500,353Z" transform="translate(-384 -246.22)" style="fill:#009245"/><path d="M449.89,395.07c44.25-44.25,49.29-40.24,49.29-40.24s8.62,33.39-.11,68.21c13.48-38.15,3.13-78.27,3.13-78.27s-5-4-49.29,40.24c-13.33,13.32-19.72,25.83-21.9,37.06C434.45,413.59,440.42,404.54,449.89,395.07Z" transform="translate(-384 -246.22)" style="fill:#006837"/><path d="M496.6,359.5s21.6,83.69-44.09,117c0,0-45.9-35.1,0-81C492.09,355.92,496.6,359.5,496.6,359.5Z" transform="translate(-384 -246.22)" style="fill:url(#BGB)"/><path d="M447.51,408.5c39.58-39.58,44.09-36,44.09-36s8.5,33-1.4,65.74c17.31-36.42,6.4-78.74,6.4-78.74s-4.51-3.58-44.09,36c-11.3,11.3-17,21.94-19.26,31.57A81,81,0,0,1,447.51,408.5Z" transform="translate(-384 -246.22)" style="fill:#22b573"/><path d="M462,455.2a4.41,4.41,0,0,1-3.76-6.31,8,8,0,0,0-7.21-11.29H431.5v1.6h2.13L444.15,455a11.29,11.29,0,0,0,9.39,5h18v-4.8H462Z" transform="translate(-384 -246.22)" style="fill:#e6e6e6"/><path d="M453.54,412a11.29,11.29,0,0,0-9.39,5L433.63,432.8H431.5v1.6h10.82a7,7,0,0,0,6.94-8.26l-.57-3.28c0-.19,0-.38,0-.57l-4.39,6.6a1.6,1.6,0,0,1-2.67-1.78l5-7.42a6.49,6.49,0,0,1,5.4-2.89H471.5V412Z" transform="translate(-384 -246.22)" style="fill:#e6e6e6"/><path d="M453.48,416.8h2a1.6,1.6,0,1,1,0,3.2h-3.56a3.3,3.3,0,0,0-2.74,1.47l-.55.82c0,.19,0,.38,0,.57l.57,3.28a7,7,0,0,1-6.94,8.26H431.5v3.2h19.56a8,8,0,0,1,7.21,11.29A4.41,4.41,0,0,0,462,455.2h9.47V416.8h-18Z" transform="translate(-384 -246.22)" style="fill:#228073"/><path d="M453.46,416.8h-1.52a6.49,6.49,0,0,0-5.4,2.89l-5,7.42a1.6,1.6,0,0,0,2.67,1.78l4.39-6.6A5.07,5.07,0,0,1,453.46,416.8Z" transform="translate(-384 -246.22)" style="fill:#7fabda"/><path d="M451.94,420h3.56a1.6,1.6,0,1,0,0-3.2h-2a5.07,5.07,0,0,0-4.81,5.49l.55-.82A3.3,3.3,0,0,1,451.94,420Z" transform="translate(-384 -246.22)" style="fill:#7fabda"/></g></g></svg>